<?xml version="1.0" standalone="no"?>
<!DOCTYPE svg PUBLIC "-//W3C//DTD SVG 20010904//EN"
 "http://www.w3.org/TR/2001/REC-SVG-20010904/DTD/svg10.dtd">
<svg version="1.0" xmlns="http://www.w3.org/2000/svg"
 width="1000.000000pt" height="1000.000000pt" viewBox="0 0 1000.000000 1000.000000"
 preserveAspectRatio="xMidYMid meet">
<g transform="translate(0.000000,1000.000000) scale(0.100000,-0.100000)"
fill="#000000" stroke="none">
<path d="M0 5000 l0 -5000 5000 0 5000 0 0 5000 0 5000 -5000 0 -5000 0 0
-5000z m8150 918 c0 -1173 -5 -2225 -10 -2338 -40 -888 -257 -1514 -628 -1814
-282 -228 -635 -345 -1137 -376 -470 -30 -791 42 -1098 246 -350 234 -566 619
-612 1092 l-6 62 394 0 393 0 18 -77 c38 -162 145 -331 257 -405 135 -88 295
-124 519 -114 255 10 418 45 577 122 232 112 321 273 383 694 45 307 44 218
47 2698 l4 2342 449 0 450 0 0 -2132z m-5288 230 l1618 -843 -2 -310 -3 -309
-1390 -724 c-764 -397 -1495 -777 -1622 -843 l-233 -120 0 359 0 360 1224 638
c674 352 1222 642 1218 645 -4 4 -555 292 -1224 640 l-1218 634 0 357 c0 197
3 358 7 358 4 0 735 -379 1625 -842z"/>
</g>
</svg>
